# xmcd CD database file
#
# Track frame offsets:
#	150
#	16067
#	37870
#	54742
#	73570
#	93017
#	118872
#	136520
#	154362
#	169870
#
# Disc length: 2525 seconds
#
# Revision: 2
# Processed by: cddbd v1.4PL0 Copyright (c) Steve Scherf et al.
# Submitted via: CDex 1.50
#
DISCID=7609db0a
DTITLE=陳秀雯 - 女人背後
DYEAR=1996
DGENRE=Unknown
TTITLE0=風光
TTITLE1=給我一些時間
TTITLE2=莎拉的故事
TTITLE3=一生只一次
TTITLE4=盡力就是最好
TTITLE5=女人背後
TTITLE6=艷陽
TTITLE7=緣訂今生
TTITLE8=分開是唯一選擇
TTITLE9=黑夜白天
EXTD=YEAR: 1996
EXTT0=
EXTT1=
EXTT2=
EXTT3=
EXTT4=
EXTT5=
EXTT6=
EXTT7=
EXTT8=
EXTT9=
PLAYORDER=
